<svg width="1396" height="301" viewBox="0 0 1396 301" fill="none" xmlns="http://www.w3.org/2000/svg">
<rect width="1396" height="301" rx="11" fill="#161616"/>
<circle cx="1018" cy="259" r="5.5" stroke="white" stroke-dasharray="12 12"/>
<circle cx="1138" cy="167" r="5.5" stroke="white" stroke-dasharray="12 12"/>
<g clip-path="url(#clip0_446_9877)">
<path d="M1110.48 246.655L1104.33 243.58L1100.42 233.399C1100.37 233.278 1100.3 233.169 1100.21 233.077C1100.12 232.985 1100.01 232.912 1099.89 232.864L1075.6 223.156C1075.43 223.089 1075.25 223.072 1075.07 223.109C1074.89 223.146 1074.73 223.234 1074.6 223.363L1071.36 226.602C1071.23 226.731 1071.14 226.895 1071.11 227.073C1071.07 227.251 1071.09 227.436 1071.16 227.605L1080.86 251.891C1080.91 252.01 1080.98 252.119 1081.08 252.209C1081.17 252.299 1081.28 252.37 1081.4 252.416L1091.58 256.33L1094.65 262.48C1094.72 262.615 1094.82 262.733 1094.94 262.824C1095.06 262.915 1095.2 262.975 1095.34 263C1095.39 263.005 1095.44 263.005 1095.49 263C1095.74 262.999 1095.98 262.9 1096.15 262.724L1110.72 248.155C1110.83 248.051 1110.91 247.924 1110.96 247.783C1111.01 247.642 1111.02 247.491 1111 247.344C1110.97 247.196 1110.91 247.056 1110.82 246.936C1110.73 246.816 1110.62 246.72 1110.48 246.655ZM1073.12 227.483L1073.64 226.967L1085.73 239.056C1084.93 240.185 1084.59 241.572 1084.77 242.943C1084.94 244.313 1085.63 245.567 1086.68 246.457C1087.74 247.347 1089.09 247.809 1090.47 247.75C1091.85 247.691 1093.16 247.116 1094.14 246.139C1095.12 245.162 1095.69 243.854 1095.75 242.473C1095.81 241.093 1095.35 239.74 1094.46 238.683C1093.57 237.626 1092.31 236.942 1090.94 236.766C1089.57 236.589 1088.19 236.933 1087.06 237.73L1074.97 225.641L1075.48 225.12L1098.81 234.453L1102.49 244.025L1092.03 254.492L1082.45 250.813L1073.12 227.483ZM1090.23 238.592C1091.08 238.594 1091.89 238.887 1092.54 239.422C1093.19 239.958 1093.64 240.702 1093.8 241.529C1093.97 242.355 1093.84 243.213 1093.44 243.956C1093.04 244.698 1092.4 245.28 1091.62 245.601C1090.84 245.923 1089.97 245.964 1089.17 245.719C1088.36 245.473 1087.67 244.956 1087.2 244.254C1086.73 243.553 1086.52 242.712 1086.6 241.873C1086.69 241.035 1087.06 240.251 1087.66 239.656C1088.34 238.974 1089.27 238.591 1090.23 238.592ZM1095.75 260.478L1093.41 255.791L1103.78 245.417L1108.47 247.761L1095.75 260.478Z" fill="#959BA0"/>
<path d="M1068.93 253.156C1068.75 252.987 1068.51 252.892 1068.27 252.892C1068.02 252.892 1067.78 252.987 1067.6 253.156L1066.41 254.347C1063.24 250.035 1061.48 244.838 1061.4 239.483C1061.31 234.127 1062.9 228.878 1065.94 224.469C1066.85 224.97 1067.9 225.162 1068.93 225.017C1069.96 224.872 1070.92 224.398 1071.65 223.664C1072.39 222.931 1072.87 221.979 1073.02 220.95C1073.17 219.921 1072.98 218.871 1072.49 217.958C1076.9 214.917 1082.15 213.328 1087.5 213.412C1092.86 213.496 1098.05 215.249 1102.37 218.426L1101.16 219.603C1100.98 219.779 1100.88 220.016 1100.88 220.264C1100.88 220.387 1100.91 220.51 1100.95 220.624C1101 220.738 1101.07 220.842 1101.16 220.93L1105.29 225.031C1105.47 225.206 1105.7 225.304 1105.95 225.304C1106.2 225.304 1106.44 225.206 1106.61 225.031L1110.72 220.92C1110.81 220.833 1110.88 220.73 1110.93 220.616C1110.97 220.502 1111 220.38 1111 220.257C1111 220.134 1110.97 220.012 1110.93 219.898C1110.88 219.784 1110.81 219.681 1110.72 219.594L1106.61 215.483C1106.44 215.308 1106.2 215.21 1105.95 215.21C1105.7 215.21 1105.47 215.308 1105.29 215.483L1103.7 217.062C1099.79 214.115 1095.16 212.264 1090.29 211.698C1085.42 211.132 1080.49 211.872 1076 213.842L1081.4 208.451C1082.02 208.744 1082.71 208.811 1083.37 208.639C1084.03 208.467 1084.6 208.067 1084.99 207.512C1085.38 206.956 1085.56 206.28 1085.5 205.604C1085.44 204.927 1085.15 204.294 1084.66 203.816C1084.18 203.339 1083.54 203.047 1082.87 202.994C1082.19 202.941 1081.52 203.129 1080.96 203.526C1080.41 203.923 1080.02 204.502 1079.85 205.16C1079.69 205.819 1079.76 206.515 1080.06 207.125L1070.94 216.261C1070.01 215.64 1068.9 215.359 1067.79 215.467C1066.68 215.576 1065.64 216.066 1064.85 216.855C1064.07 217.643 1063.58 218.681 1063.47 219.791C1063.36 220.901 1063.64 222.014 1064.26 222.941L1055.13 232.062C1054.51 231.764 1053.82 231.693 1053.16 231.86C1052.5 232.028 1051.92 232.424 1051.52 232.979C1051.13 233.533 1050.94 234.21 1051 234.888C1051.05 235.567 1051.35 236.203 1051.83 236.685C1052.31 237.166 1052.95 237.461 1053.63 237.518C1054.3 237.574 1054.98 237.388 1055.54 236.993C1056.09 236.598 1056.49 236.019 1056.65 235.359C1056.82 234.699 1056.75 234.001 1056.45 233.389L1061.86 227.998C1059.88 232.485 1059.14 237.416 1059.71 242.284C1060.27 247.153 1062.12 251.784 1065.06 255.701L1063.48 257.291C1063.3 257.466 1063.21 257.704 1063.21 257.951C1063.21 258.199 1063.3 258.437 1063.48 258.612L1067.59 262.723C1067.76 262.899 1068 262.999 1068.25 263C1068.37 263 1068.5 262.976 1068.61 262.928C1068.72 262.881 1068.83 262.811 1068.92 262.723L1073.03 258.612C1073.21 258.437 1073.3 258.199 1073.3 257.951C1073.3 257.704 1073.21 257.466 1073.03 257.291L1068.93 253.156ZM1105.96 217.461L1108.75 220.245L1105.96 223.03L1103.18 220.245L1105.96 217.461ZM1081.94 205.17C1082.08 205.03 1082.25 204.934 1082.45 204.895C1082.64 204.855 1082.84 204.875 1083.03 204.95C1083.21 205.025 1083.37 205.153 1083.48 205.318C1083.59 205.482 1083.65 205.676 1083.65 205.873C1083.65 206.071 1083.59 206.265 1083.48 206.429C1083.37 206.593 1083.21 206.721 1083.03 206.797C1082.84 206.872 1082.64 206.891 1082.45 206.852C1082.25 206.813 1082.08 206.717 1081.94 206.576C1081.85 206.484 1081.77 206.375 1081.72 206.254C1081.67 206.133 1081.65 206.004 1081.65 205.873C1081.65 205.743 1081.67 205.613 1081.72 205.493C1081.77 205.372 1081.85 205.263 1081.94 205.17ZM1066.19 218.187C1066.46 217.914 1066.78 217.697 1067.14 217.549C1067.5 217.401 1067.88 217.324 1068.26 217.324C1068.65 217.324 1069.03 217.401 1069.39 217.549C1069.75 217.697 1070.07 217.914 1070.34 218.187C1070.75 218.598 1071.03 219.122 1071.15 219.692C1071.26 220.262 1071.2 220.854 1070.98 221.391C1070.76 221.928 1070.38 222.388 1069.9 222.711C1069.41 223.034 1068.85 223.206 1068.26 223.206C1067.68 223.206 1067.11 223.034 1066.63 222.711C1066.15 222.388 1065.77 221.928 1065.55 221.391C1065.33 220.854 1065.27 220.262 1065.38 219.692C1065.5 219.122 1065.78 218.598 1066.19 218.187ZM1054.58 235.344C1054.39 235.503 1054.15 235.586 1053.9 235.574C1053.65 235.563 1053.41 235.459 1053.24 235.283C1053.06 235.107 1052.96 234.871 1052.94 234.622C1052.93 234.373 1053.02 234.129 1053.18 233.937C1053.36 233.753 1053.62 233.65 1053.88 233.65C1054.14 233.65 1054.39 233.753 1054.58 233.937C1054.67 234.03 1054.75 234.139 1054.8 234.26C1054.85 234.381 1054.87 234.51 1054.87 234.641C1054.87 234.771 1054.85 234.9 1054.8 235.021C1054.75 235.142 1054.67 235.251 1054.58 235.344ZM1068.26 260.717L1065.48 257.933L1068.26 255.148L1071.05 257.933L1068.26 260.717Z" fill="#959BA0"/>
</g>
<path d="M800.046 230.933C791.554 230.933 784.616 237.871 784.616 246.363C784.616 250.803 786.558 255.077 789.833 257.963C792.275 260.405 792.053 265.623 791.998 265.678C791.998 265.956 792.053 266.178 792.275 266.4C792.442 266.566 792.719 266.677 792.941 266.677H807.095C807.372 266.677 807.594 266.566 807.761 266.4C807.927 266.233 808.038 265.956 808.038 265.678C808.038 265.623 807.761 260.405 810.203 257.963C810.259 257.908 810.314 257.852 810.37 257.797C813.589 254.855 815.476 250.692 815.476 246.363C815.476 237.871 808.538 230.933 800.046 230.933ZM808.927 256.52C808.871 256.576 808.76 256.687 808.76 256.742C806.595 259.073 806.207 262.903 806.151 264.735H793.885C793.829 262.903 793.441 258.907 791.11 256.52C788.168 253.967 786.447 250.248 786.447 246.307C786.447 238.814 792.497 232.764 799.99 232.764C807.483 232.764 813.533 238.814 813.533 246.307C813.533 250.248 811.868 253.967 808.927 256.52Z" fill="#959BA0"/>
<path d="M799.99 234.873C799.491 234.873 799.047 235.317 799.047 235.817C799.047 236.316 799.491 236.76 799.99 236.76C805.596 236.76 810.092 241.312 810.092 246.862C810.092 247.361 810.536 247.806 811.036 247.806C811.535 247.806 811.979 247.361 811.979 246.862C812.035 240.257 806.651 234.873 799.99 234.873Z" fill="#959BA0"/>
<path d="M806.151 267.731H793.829C792.553 267.731 791.498 268.786 791.498 270.063C791.498 271.339 792.553 272.394 793.829 272.394H806.096C807.428 272.338 808.482 271.339 808.482 270.063C808.482 268.786 807.428 267.731 806.151 267.731ZM806.151 270.451H793.829C793.607 270.451 793.385 270.285 793.385 270.007C793.385 269.73 793.552 269.563 793.829 269.563H806.096C806.318 269.563 806.54 269.73 806.54 270.007C806.54 270.285 806.373 270.451 806.151 270.451Z" fill="#959BA0"/>
<path d="M804.319 273.338H795.661C794.384 273.338 793.33 274.392 793.33 275.669C793.33 276.946 794.384 278 795.661 278H804.319C805.596 278 806.651 276.946 806.651 275.669C806.651 274.337 805.596 273.338 804.319 273.338ZM804.319 276.058H795.661C795.439 276.058 795.217 275.891 795.217 275.614C795.217 275.336 795.383 275.17 795.661 275.17H804.319C804.541 275.17 804.763 275.336 804.763 275.614C804.763 275.891 804.541 276.058 804.319 276.058Z" fill="#959BA0"/>
<path d="M799.99 226.326C800.545 226.326 800.934 225.882 800.934 225.382V218.944C800.934 218.444 800.49 218 799.99 218C799.491 218 799.047 218.444 799.047 218.944V225.382C799.047 225.882 799.491 226.326 799.99 226.326Z" fill="#959BA0"/>
<path d="M815.698 222.773C815.254 222.44 814.699 222.607 814.421 222.995L810.869 228.324C810.536 228.768 810.647 229.378 811.091 229.656C811.257 229.767 811.424 229.822 811.59 229.822C811.924 229.822 812.201 229.656 812.368 229.378L815.92 224.05C816.253 223.661 816.142 223.051 815.698 222.773Z" fill="#959BA0"/>
<path d="M788.723 229.6C788.889 229.6 789.056 229.545 789.223 229.434C789.667 229.156 789.778 228.546 789.5 228.102L786.059 222.718C785.781 222.274 785.171 222.163 784.727 222.44C784.283 222.718 784.172 223.328 784.449 223.772L787.89 229.156C788.112 229.489 788.39 229.6 788.723 229.6Z" fill="#959BA0"/>
<path d="M782.007 235.484L776.401 232.431C775.957 232.209 775.346 232.375 775.124 232.819C774.847 233.263 775.013 233.874 775.513 234.096L781.119 237.149C781.285 237.204 781.396 237.26 781.563 237.26C781.896 237.26 782.229 237.093 782.395 236.76C782.617 236.316 782.451 235.706 782.007 235.484Z" fill="#959BA0"/>
<path d="M824.912 232.819C824.69 232.375 824.079 232.209 823.635 232.431L817.974 235.484C817.53 235.706 817.363 236.316 817.585 236.76C817.752 237.093 818.085 237.26 818.418 237.26C818.584 237.26 818.751 237.204 818.862 237.149L824.523 234.096C824.967 233.874 825.134 233.263 824.912 232.819Z" fill="#959BA0"/>
<path d="M1277.45 124.664C1277.42 124.341 1277.14 124.1 1276.82 124.127C1274.95 124.277 1273 124.353 1271 124.353C1266.24 124.353 1261.8 123.926 1258.49 123.15C1258.18 123.077 1257.86 123.272 1257.79 123.587C1257.71 123.902 1257.91 124.218 1258.23 124.292C1261.61 125.087 1266.15 125.525 1271 125.525C1273.03 125.525 1275.02 125.448 1276.91 125.295C1277.24 125.269 1277.48 124.987 1277.45 124.664Z" fill="#959BA0"/>
<path d="M1277.45 134.712C1277.42 134.389 1277.14 134.148 1276.82 134.174C1274.95 134.324 1273 134.401 1271 134.401C1266.24 134.401 1261.8 133.974 1258.49 133.198C1258.18 133.124 1257.86 133.32 1257.79 133.635C1257.71 133.95 1257.91 134.266 1258.23 134.34C1261.61 135.135 1266.15 135.573 1271 135.573C1273.03 135.573 1275.02 135.496 1276.91 135.343C1277.24 135.317 1277.48 135.034 1277.45 134.712Z" fill="#959BA0"/>
<path d="M1289.44 115.612C1289.32 112.808 1281.73 111.712 1278.46 111.37C1277.44 111.264 1276.39 111.18 1275.31 111.119C1273.9 111.04 1272.46 111 1271 111C1267.27 111 1263.7 111.259 1260.65 111.749C1260.33 111.801 1260.12 112.102 1260.17 112.421C1260.22 112.741 1260.52 112.959 1260.84 112.907C1263.82 112.426 1267.33 112.173 1271 112.173C1272.43 112.173 1273.86 112.212 1275.24 112.29C1276.3 112.349 1277.34 112.432 1278.33 112.536C1281.37 112.853 1283.93 113.356 1285.75 113.991C1288.15 114.83 1288.27 115.546 1288.27 115.681C1288.27 116.137 1287.27 117.141 1283.5 118.005C1283.39 118.029 1283.29 118.052 1283.18 118.076C1279.89 118.795 1275.58 119.189 1271 119.189C1266.42 119.189 1262.11 118.795 1258.82 118.076C1258.71 118.052 1258.61 118.029 1258.5 118.005C1254.77 117.149 1253.75 116.156 1253.73 115.694C1253.73 115.69 1253.73 115.685 1253.73 115.681C1253.73 115.677 1253.73 115.673 1253.73 115.669C1253.74 115.393 1254.07 115.041 1254.65 114.701C1255.38 114.272 1256.45 113.875 1257.83 113.521C1258.14 113.441 1258.33 113.121 1258.25 112.808C1258.17 112.494 1257.85 112.305 1257.53 112.386C1254.23 113.233 1252.56 114.342 1252.56 115.681V146.319C1252.56 147.755 1254.47 148.921 1258.24 149.786C1261.66 150.569 1266.19 151 1271 151C1275.81 151 1280.34 150.569 1283.76 149.786C1287.53 148.921 1289.44 147.754 1289.44 146.319V115.711C1289.44 115.701 1289.44 115.691 1289.44 115.681C1289.44 115.658 1289.44 115.635 1289.44 115.612ZM1283.5 148.643C1280.16 149.407 1275.73 149.827 1271 149.827C1266.27 149.827 1261.83 149.407 1258.5 148.643C1254.73 147.779 1253.73 146.775 1253.73 146.319V137.888C1253.74 137.897 1253.75 137.906 1253.77 137.915C1253.8 137.936 1253.83 137.958 1253.87 137.979C1253.89 137.996 1253.92 138.013 1253.95 138.03C1253.98 138.052 1254.02 138.073 1254.05 138.094C1254.08 138.111 1254.11 138.127 1254.14 138.144C1254.17 138.165 1254.21 138.187 1254.25 138.208C1254.28 138.224 1254.31 138.24 1254.34 138.256C1254.38 138.278 1254.43 138.3 1254.47 138.323C1254.5 138.337 1254.53 138.351 1254.55 138.365C1254.61 138.392 1254.67 138.419 1254.72 138.445C1254.74 138.454 1254.76 138.464 1254.78 138.473C1254.86 138.509 1254.94 138.544 1255.02 138.578C1255.04 138.589 1255.07 138.6 1255.1 138.611C1255.15 138.635 1255.21 138.659 1255.27 138.682C1255.3 138.696 1255.34 138.709 1255.37 138.723C1255.43 138.744 1255.48 138.764 1255.53 138.785C1255.57 138.799 1255.61 138.813 1255.65 138.827C1255.7 138.847 1255.76 138.866 1255.81 138.885C1255.85 138.9 1255.89 138.914 1255.93 138.928C1255.99 138.947 1256.04 138.966 1256.1 138.984C1256.14 138.998 1256.18 139.012 1256.23 139.026C1256.28 139.045 1256.34 139.063 1256.4 139.081C1256.44 139.095 1256.49 139.109 1256.53 139.123C1256.59 139.141 1256.65 139.159 1256.71 139.177C1256.76 139.19 1256.81 139.204 1256.85 139.217C1256.91 139.235 1256.98 139.253 1257.04 139.271C1257.09 139.284 1257.13 139.296 1257.18 139.309C1257.25 139.327 1257.32 139.346 1257.39 139.364C1257.43 139.376 1257.48 139.387 1257.52 139.399C1257.6 139.419 1257.68 139.439 1257.76 139.459C1257.8 139.468 1257.84 139.478 1257.88 139.487C1258 139.516 1258.12 139.545 1258.24 139.573C1261.66 140.356 1266.19 140.787 1271 140.787C1275.81 140.787 1280.34 140.356 1283.76 139.573C1283.88 139.545 1284 139.516 1284.12 139.487C1284.16 139.478 1284.2 139.468 1284.24 139.459C1284.32 139.439 1284.4 139.419 1284.48 139.399C1284.52 139.387 1284.56 139.376 1284.61 139.364C1284.68 139.346 1284.75 139.327 1284.82 139.309C1284.86 139.296 1284.91 139.284 1284.96 139.271C1285.02 139.253 1285.08 139.235 1285.15 139.217C1285.19 139.204 1285.24 139.19 1285.28 139.177C1285.34 139.159 1285.4 139.141 1285.46 139.123C1285.51 139.109 1285.55 139.095 1285.6 139.081C1285.66 139.063 1285.71 139.045 1285.77 139.027C1285.81 139.012 1285.86 138.998 1285.9 138.984C1285.96 138.966 1286.01 138.947 1286.07 138.928C1286.11 138.914 1286.15 138.9 1286.19 138.885C1286.24 138.866 1286.3 138.847 1286.35 138.827C1286.39 138.813 1286.43 138.799 1286.46 138.785C1286.52 138.764 1286.57 138.744 1286.63 138.723C1286.66 138.709 1286.69 138.696 1286.73 138.683C1286.79 138.659 1286.84 138.635 1286.9 138.611C1286.93 138.6 1286.95 138.589 1286.98 138.578C1287.06 138.544 1287.14 138.509 1287.22 138.473C1287.24 138.464 1287.26 138.455 1287.28 138.445C1287.33 138.419 1287.39 138.392 1287.44 138.365C1287.47 138.351 1287.5 138.337 1287.53 138.323C1287.57 138.3 1287.62 138.278 1287.66 138.256C1287.69 138.24 1287.72 138.224 1287.75 138.208C1287.78 138.187 1287.82 138.165 1287.86 138.144C1287.89 138.127 1287.92 138.111 1287.95 138.094C1287.98 138.073 1288.02 138.052 1288.05 138.03C1288.08 138.013 1288.11 137.996 1288.13 137.979C1288.17 137.958 1288.2 137.936 1288.23 137.915C1288.24 137.906 1288.26 137.897 1288.27 137.888V146.319H1288.27C1288.27 146.775 1287.27 147.779 1283.5 148.643ZM1288.24 136.249C1288.06 136.75 1286.91 137.647 1283.5 138.43C1280.16 139.194 1275.73 139.615 1271 139.615C1266.27 139.615 1261.83 139.194 1258.5 138.43C1255.09 137.647 1253.94 136.75 1253.76 136.249C1253.74 136.197 1253.73 136.149 1253.73 136.106V127.676C1253.74 127.684 1253.75 127.692 1253.77 127.701C1253.8 127.723 1253.83 127.745 1253.87 127.767C1253.89 127.784 1253.92 127.8 1253.95 127.817C1253.98 127.839 1254.02 127.86 1254.05 127.882C1254.08 127.898 1254.11 127.915 1254.14 127.931C1254.17 127.953 1254.21 127.974 1254.25 127.996C1254.28 128.011 1254.31 128.027 1254.34 128.043C1254.38 128.065 1254.43 128.087 1254.47 128.11C1254.5 128.124 1254.53 128.138 1254.55 128.153C1254.61 128.179 1254.66 128.205 1254.72 128.231C1254.74 128.241 1254.76 128.251 1254.78 128.26C1254.86 128.296 1254.94 128.331 1255.02 128.365C1255.04 128.377 1255.07 128.388 1255.1 128.4C1255.16 128.423 1255.21 128.446 1255.27 128.47C1255.3 128.484 1255.34 128.497 1255.38 128.511C1255.43 128.531 1255.48 128.552 1255.53 128.572C1255.57 128.586 1255.61 128.601 1255.65 128.615C1255.7 128.634 1255.76 128.653 1255.81 128.672C1255.85 128.687 1255.89 128.702 1255.93 128.716C1255.99 128.735 1256.04 128.753 1256.1 128.771C1256.14 128.786 1256.19 128.8 1256.23 128.814C1256.29 128.832 1256.34 128.85 1256.4 128.868C1256.44 128.882 1256.49 128.896 1256.53 128.91C1256.59 128.928 1256.65 128.946 1256.71 128.964C1256.76 128.977 1256.81 128.991 1256.85 129.004C1256.91 129.022 1256.98 129.04 1257.04 129.058C1257.09 129.071 1257.13 129.083 1257.18 129.096C1257.25 129.115 1257.32 129.133 1257.39 129.151C1257.43 129.163 1257.48 129.175 1257.52 129.186C1257.6 129.206 1257.68 129.226 1257.76 129.246C1257.8 129.255 1257.84 129.265 1257.88 129.274C1258 129.303 1258.12 129.332 1258.24 129.36C1261.66 130.143 1266.19 130.575 1271 130.575C1275.81 130.575 1280.34 130.143 1283.76 129.36C1283.88 129.332 1284 129.303 1284.12 129.274C1284.16 129.265 1284.2 129.255 1284.24 129.246C1284.32 129.226 1284.4 129.206 1284.48 129.186C1284.52 129.175 1284.57 129.163 1284.61 129.151C1284.68 129.133 1284.75 129.115 1284.82 129.096C1284.86 129.084 1284.91 129.071 1284.96 129.058C1285.02 129.04 1285.08 129.022 1285.15 129.004C1285.19 128.991 1285.24 128.977 1285.28 128.964C1285.34 128.946 1285.4 128.928 1285.46 128.91C1285.51 128.896 1285.55 128.882 1285.6 128.868C1285.66 128.85 1285.71 128.832 1285.77 128.814C1285.81 128.8 1285.86 128.786 1285.9 128.771C1285.96 128.753 1286.01 128.735 1286.06 128.716C1286.11 128.702 1286.15 128.687 1286.19 128.672C1286.24 128.654 1286.3 128.635 1286.35 128.615C1286.39 128.601 1286.43 128.587 1286.47 128.572C1286.52 128.552 1286.57 128.532 1286.62 128.511C1286.66 128.497 1286.69 128.484 1286.73 128.47C1286.79 128.447 1286.84 128.423 1286.9 128.4C1286.93 128.388 1286.95 128.377 1286.98 128.366C1287.06 128.331 1287.14 128.296 1287.22 128.261C1287.24 128.251 1287.26 128.241 1287.28 128.231C1287.33 128.205 1287.39 128.179 1287.44 128.153C1287.47 128.139 1287.5 128.124 1287.53 128.11C1287.57 128.087 1287.62 128.065 1287.66 128.043C1287.69 128.027 1287.72 128.012 1287.75 127.996C1287.78 127.974 1287.82 127.953 1287.86 127.931C1287.89 127.915 1287.92 127.898 1287.95 127.882C1287.98 127.86 1288.02 127.839 1288.05 127.817C1288.08 127.8 1288.11 127.784 1288.13 127.767C1288.17 127.745 1288.2 127.723 1288.23 127.701C1288.24 127.692 1288.26 127.684 1288.27 127.676V136.106H1288.27C1288.27 136.149 1288.26 136.197 1288.24 136.249ZM1283.5 128.218C1280.16 128.981 1275.73 129.402 1271 129.402C1266.27 129.402 1261.83 128.981 1258.5 128.218C1254.73 127.353 1253.73 126.35 1253.73 125.894V117.463C1253.74 117.471 1253.75 117.48 1253.77 117.488C1253.8 117.51 1253.83 117.532 1253.87 117.554C1253.89 117.571 1253.92 117.588 1253.95 117.604C1253.98 117.626 1254.02 117.648 1254.05 117.669C1254.08 117.686 1254.11 117.702 1254.14 117.718C1254.17 117.74 1254.21 117.762 1254.25 117.783C1254.28 117.799 1254.31 117.815 1254.34 117.83C1254.38 117.853 1254.43 117.875 1254.47 117.897C1254.5 117.911 1254.53 117.926 1254.55 117.94C1254.61 117.966 1254.66 117.993 1254.72 118.019C1254.74 118.028 1254.76 118.038 1254.78 118.048C1254.86 118.083 1254.94 118.118 1255.02 118.153C1255.04 118.164 1255.07 118.176 1255.1 118.187C1255.16 118.21 1255.21 118.234 1255.27 118.257C1255.3 118.271 1255.34 118.285 1255.38 118.299C1255.43 118.319 1255.48 118.339 1255.53 118.359C1255.57 118.374 1255.61 118.388 1255.65 118.403C1255.7 118.422 1255.76 118.441 1255.81 118.46C1255.85 118.474 1255.89 118.489 1255.93 118.503C1255.99 118.522 1256.04 118.54 1256.1 118.559C1256.14 118.573 1256.18 118.587 1256.23 118.602C1256.29 118.62 1256.34 118.638 1256.4 118.656C1256.44 118.67 1256.49 118.684 1256.53 118.698C1256.59 118.716 1256.65 118.733 1256.71 118.751C1256.76 118.765 1256.81 118.778 1256.85 118.791C1256.91 118.809 1256.98 118.827 1257.04 118.845C1257.09 118.858 1257.13 118.871 1257.18 118.884C1257.25 118.902 1257.32 118.92 1257.39 118.938C1257.43 118.95 1257.48 118.962 1257.52 118.974C1257.6 118.994 1257.68 119.013 1257.76 119.033C1257.8 119.043 1257.84 119.052 1257.88 119.062C1258 119.091 1258.12 119.119 1258.24 119.148C1261.66 119.931 1266.19 120.362 1271 120.362C1275.81 120.362 1280.34 119.931 1283.76 119.148C1283.88 119.119 1284 119.091 1284.12 119.062C1284.16 119.052 1284.2 119.043 1284.24 119.033C1284.32 119.013 1284.4 118.994 1284.48 118.974C1284.52 118.962 1284.57 118.95 1284.61 118.938C1284.68 118.92 1284.75 118.902 1284.82 118.884C1284.86 118.871 1284.91 118.858 1284.96 118.845C1285.02 118.827 1285.08 118.81 1285.15 118.792C1285.19 118.778 1285.24 118.765 1285.28 118.751C1285.34 118.733 1285.4 118.716 1285.46 118.698C1285.51 118.684 1285.55 118.67 1285.6 118.656C1285.66 118.638 1285.71 118.62 1285.77 118.602C1285.81 118.587 1285.86 118.573 1285.9 118.559C1285.96 118.54 1286.01 118.522 1286.06 118.504C1286.11 118.489 1286.15 118.474 1286.19 118.46C1286.24 118.441 1286.3 118.422 1286.35 118.403C1286.39 118.388 1286.43 118.374 1286.47 118.359C1286.52 118.339 1286.57 118.319 1286.62 118.299C1286.66 118.285 1286.69 118.271 1286.73 118.257C1286.79 118.234 1286.84 118.211 1286.9 118.187C1286.93 118.176 1286.95 118.164 1286.98 118.153C1287.06 118.118 1287.14 118.083 1287.22 118.048C1287.24 118.038 1287.26 118.029 1287.28 118.019C1287.33 117.993 1287.39 117.967 1287.44 117.94C1287.47 117.926 1287.5 117.911 1287.53 117.897C1287.57 117.875 1287.62 117.853 1287.66 117.83C1287.69 117.815 1287.72 117.799 1287.75 117.783C1287.78 117.762 1287.82 117.74 1287.86 117.718C1287.89 117.702 1287.92 117.686 1287.95 117.669C1287.98 117.648 1288.02 117.626 1288.05 117.604C1288.08 117.588 1288.11 117.571 1288.13 117.554C1288.17 117.532 1288.2 117.51 1288.23 117.488C1288.24 117.48 1288.26 117.471 1288.27 117.463V125.894H1288.27C1288.27 126.35 1287.27 127.353 1283.5 128.218Z" fill="#959BA0"/>
<path d="M1283.46 122.289C1282.57 121.398 1281.12 121.398 1280.23 122.289C1279.34 123.181 1279.34 124.63 1280.23 125.522C1280.67 125.967 1281.26 126.19 1281.85 126.19C1282.43 126.19 1283.02 125.967 1283.46 125.522C1284.35 124.63 1284.35 123.181 1283.46 122.289ZM1282.63 124.692C1282.42 124.903 1282.14 125.018 1281.85 125.018C1281.55 125.018 1281.27 124.903 1281.06 124.692C1280.85 124.482 1280.73 124.203 1280.73 123.906C1280.73 123.608 1280.85 123.329 1281.06 123.119C1281.27 122.908 1281.55 122.793 1281.85 122.793C1282.14 122.793 1282.42 122.908 1282.63 123.119C1282.84 123.329 1282.96 123.608 1282.96 123.906C1282.96 124.203 1282.84 124.482 1282.63 124.692Z" fill="#959BA0"/>
<path d="M1283.46 132.368C1282.57 131.477 1281.12 131.477 1280.23 132.368C1279.34 133.26 1279.34 134.71 1280.23 135.601C1280.67 136.046 1281.26 136.269 1281.85 136.269C1282.43 136.269 1283.02 136.046 1283.46 135.601C1284.35 134.71 1284.35 133.26 1283.46 132.368ZM1282.63 134.772C1282.42 134.982 1282.14 135.098 1281.85 135.098C1281.55 135.098 1281.27 134.982 1281.06 134.772C1280.85 134.561 1280.73 134.282 1280.73 133.985C1280.73 133.687 1280.85 133.408 1281.06 133.198C1281.27 132.987 1281.55 132.872 1281.85 132.872C1282.14 132.872 1282.42 132.987 1282.63 133.198C1282.84 133.408 1282.96 133.687 1282.96 133.985C1282.96 134.282 1282.84 134.561 1282.63 134.772Z" fill="#959BA0"/>
<path d="M1283.46 142.462C1282.57 141.571 1281.12 141.571 1280.23 142.462C1279.34 143.353 1279.34 144.803 1280.23 145.694C1280.67 146.14 1281.26 146.363 1281.85 146.363C1282.43 146.363 1283.02 146.14 1283.46 145.694C1284.35 144.803 1284.35 143.353 1283.46 142.462ZM1282.63 144.865C1282.42 145.076 1282.14 145.191 1281.85 145.191C1281.55 145.191 1281.27 145.076 1281.06 144.865C1280.85 144.655 1280.73 144.376 1280.73 144.078C1280.73 143.781 1280.85 143.502 1281.06 143.291C1281.27 143.081 1281.55 142.965 1281.85 142.965C1282.14 142.965 1282.42 143.081 1282.63 143.291C1282.84 143.502 1282.96 143.781 1282.96 144.078C1282.96 144.376 1282.84 144.655 1282.63 144.865Z" fill="#959BA0"/>
<path d="M1277.45 144.949C1277.43 144.627 1277.14 144.385 1276.82 144.412C1276 144.478 1275.15 144.53 1274.3 144.567C1273.98 144.582 1273.73 144.855 1273.74 145.179C1273.76 145.493 1274.01 145.739 1274.33 145.739C1274.34 145.739 1274.34 145.739 1274.35 145.739C1275.22 145.701 1276.08 145.648 1276.91 145.581C1277.24 145.555 1277.48 145.272 1277.45 144.949Z" fill="#959BA0"/>
<path d="M1271.18 144.639C1271.18 144.639 1271.18 144.639 1271.18 144.639L1271 144.639C1266.24 144.639 1261.8 144.212 1258.49 143.436C1258.18 143.363 1257.86 143.558 1257.79 143.873C1257.71 144.189 1257.91 144.504 1258.23 144.578C1261.61 145.373 1266.15 145.811 1271 145.811L1271.18 145.811C1271.51 145.81 1271.77 145.547 1271.77 145.223C1271.77 144.9 1271.5 144.639 1271.18 144.639Z" fill="#959BA0"/>
<g clip-path="url(#clip1_446_9877)">
<path d="M1073.45 59.6001C1073.46 59.5762 1073.47 59.5518 1073.48 59.5268C1075.85 54.057 1075.43 47.3513 1072.35 42.226C1073.99 40.2616 1071.86 37.4484 1069.52 38.5369C1069.11 38.1177 1068.68 37.7159 1068.24 37.3361C1069.11 34.9547 1066.19 33.0011 1064.37 34.7804C1059.08 32.108 1052.49 32.1418 1047.23 34.8708C1045.36 32.8867 1042.21 35.0141 1043.35 37.5035C1042.7 38.0712 1042.08 38.6844 1041.52 39.3329C1041.03 39.8929 1041.91 40.6603 1042.4 40.1043C1042.93 39.5011 1043.5 38.9304 1044.1 38.4016C1045.27 39.243 1046.96 38.8143 1047.6 37.53C1049.71 38.1379 1051.73 39.0104 1053.61 40.1303C1053.45 40.6976 1053.51 41.3313 1053.78 41.855C1052.24 43.1912 1050.84 44.7027 1049.64 46.3591C1048.52 46.0217 1047.29 46.5865 1046.8 47.644C1044.34 47.6572 1041.87 47.9221 1039.44 48.4348C1039.23 48.0357 1038.91 47.705 1038.51 47.4835C1038.97 45.7065 1039.69 44.0161 1040.66 42.4531C1041.05 41.8302 1040.07 41.1826 1039.67 41.8338C1038.63 43.4956 1037.86 45.2925 1037.38 47.1815C1034.57 47.2292 1034.1 51.1143 1036.77 51.8617C1036.73 57.3909 1039.12 62.7667 1043.27 66.4287C1042.4 68.7646 1045.21 70.6915 1047.06 69.0438C1052.47 71.919 1059.3 71.9194 1064.71 69.0448C1066.6 70.9084 1069.61 68.8264 1068.55 66.39C1070.69 64.4913 1072.35 62.1689 1073.45 59.6001ZM1072.71 58.289C1071.09 56.6768 1069.31 55.2144 1067.42 53.9306C1067.69 53.0871 1067.45 52.1382 1066.82 51.5156C1068.42 48.8647 1069.67 46.0223 1070.55 43.0531C1070.84 43.0541 1071.13 42.9999 1071.39 42.9019C1074.09 47.4613 1074.58 53.3398 1072.71 58.289ZM1045.74 64.9158C1045.24 60.0835 1046.11 55.2626 1048.25 50.906C1049.58 51.3213 1051.02 50.446 1051.28 49.0797C1055.32 49.578 1059.22 50.7647 1062.87 52.6128C1062.69 53.2958 1062.84 54.0488 1063.26 54.617C1059.14 59.8341 1053.7 63.7599 1047.48 66.0099C1047.1 65.413 1046.47 64.9954 1045.74 64.9158ZM1063.97 53.2068C1063.97 52.5425 1064.5 52.0021 1065.16 52.0021C1066.75 52.0682 1066.75 54.3457 1065.16 54.4115C1064.5 54.4115 1063.97 53.8711 1063.97 53.2068ZM1071.75 40.6761C1071.75 41.3403 1071.22 41.8807 1070.56 41.8807C1068.97 41.8147 1068.97 39.5372 1070.56 39.4714C1071.22 39.4714 1071.75 40.0118 1071.75 40.6761ZM1068.63 39.2979C1067.82 40.4363 1068.19 42.082 1069.42 42.7586C1068.56 45.6228 1067.35 48.3645 1065.81 50.9219C1065.49 50.8293 1065.13 50.8063 1064.8 50.857C1063.19 47.4214 1060.85 44.3269 1057.99 41.8552C1058.26 41.3311 1058.33 40.6986 1058.17 40.1304C1059.98 39.0519 1061.92 38.202 1063.95 37.5978C1064.62 38.8989 1066.43 39.2663 1067.55 38.2923C1067.92 38.6123 1068.28 38.9485 1068.63 39.2979ZM1054.69 40.7668C1054.69 40.1025 1055.23 39.5621 1055.89 39.5621C1057.48 39.6281 1057.48 41.9056 1055.89 41.9714C1055.23 41.9714 1054.69 41.431 1054.69 40.7668ZM1066.03 35.2659C1066.69 35.2659 1067.23 35.8063 1067.23 36.4706C1067.16 38.0688 1064.9 38.0684 1064.84 36.4706C1064.84 35.8063 1065.37 35.2659 1066.03 35.2659ZM1045.48 37.6752C1044.82 37.6752 1044.28 37.1348 1044.28 36.4705C1044.35 34.8723 1046.61 34.8728 1046.68 36.4705C1046.68 37.1348 1046.14 37.6752 1045.48 37.6752ZM1047.85 36.3806C1047.84 36.2179 1047.82 36.0595 1047.78 35.9066C1052.69 33.3689 1058.82 33.3247 1063.76 35.7886C1063.7 36.0011 1063.66 36.2258 1063.66 36.4585C1061.53 37.0894 1059.49 37.9806 1057.59 39.1129C1056.67 38.1663 1055.11 38.166 1054.19 39.1128C1052.21 37.9328 1050.08 37.0155 1047.85 36.3806ZM1054.56 42.7337C1055.35 43.2747 1056.42 43.2748 1057.22 42.7338C1059.95 45.0912 1062.18 48.0422 1063.72 51.3191C1063.62 51.3993 1063.52 51.4882 1063.43 51.5844C1059.58 49.6308 1055.47 48.3887 1051.2 47.8889C1051.09 47.54 1050.89 47.2267 1050.64 46.9703C1051.79 45.4137 1053.1 43.992 1054.56 42.7337ZM1048.95 47.4308C1049.61 47.4308 1050.15 47.9712 1050.15 48.6355C1050.08 50.2337 1047.82 50.2333 1047.76 48.6355C1047.76 47.9712 1048.29 47.4308 1048.95 47.4308ZM1036.16 49.5582C1036.16 48.8939 1036.7 48.3535 1037.36 48.3535C1038.94 48.4195 1038.94 50.697 1037.36 50.7628C1036.7 50.7629 1036.16 50.2225 1036.16 49.5582ZM1037.94 51.8612C1037.94 51.8612 1039.73 51.4729 1039.73 49.5737C1039.73 49.5737 1044.29 48.8433 1046.59 48.8177C1046.64 49.3856 1046.88 49.8981 1047.25 50.2848C1044.97 54.8808 1044.04 59.9762 1044.58 65.0823C1044.35 65.1775 1044.14 65.3077 1043.95 65.4659C1040.13 62.0398 1037.94 56.2993 1037.94 51.8612ZM1045.48 68.4833C1044.82 68.4833 1044.28 67.9429 1044.28 67.2786C1044.28 66.6143 1044.82 66.0739 1045.48 66.0739C1046.13 66.0739 1046.68 66.6374 1046.68 67.2786C1046.68 67.9429 1046.14 68.4833 1045.48 68.4833ZM1055.89 70.0369C1053.04 70.0369 1050.23 69.3555 1047.72 68.0618C1047.82 67.7693 1047.86 67.436 1047.84 67.1255C1054.28 64.8058 1059.9 60.7518 1064.16 55.3613C1064.51 55.5254 1064.9 55.6008 1065.29 55.5806C1065.55 56.5472 1065.75 57.5333 1065.9 58.5194C1066.01 59.2743 1067.17 59.1056 1067.06 58.3479C1066.9 57.3009 1066.68 56.2537 1066.41 55.228C1066.55 55.1408 1066.68 55.0391 1066.8 54.9254C1068.75 56.2534 1070.58 57.778 1072.23 59.4652C1071.2 61.7304 1069.71 63.7814 1067.82 65.4762C1067.63 65.3355 1067.42 65.2223 1067.2 65.1418C1067.31 64.052 1067.36 62.9517 1067.34 61.8634C1067.33 61.0975 1066.16 61.1155 1066.17 61.8815C1066.19 62.9276 1066.14 63.9853 1066.03 65.0329C1064.65 65.2528 1063.74 66.6864 1064.12 68.03C1061.59 69.3442 1058.76 70.0369 1055.89 70.0369ZM1066.4 68.5852C1065.74 68.5852 1065.21 68.0448 1065.21 67.3805C1065.27 65.7823 1067.53 65.7828 1067.6 67.3805C1067.6 68.0448 1067.06 68.5852 1066.4 68.5852Z" fill="#959BA0"/>
</g>
<path d="M64.5967 184.136C64.5967 184.136 73.4292 177.301 76.3977 180.002C79.3662 182.703 73.4795 192.219 76.448 194.92C79.4165 197.621 88.3366 190.866 91.305 193.567C94.2735 196.268 88.3869 205.784 91.3554 208.485C94.3239 211.187 101.293 202.656 106.212 207.132C111.132 211.609 110.556 220.478 110.556 220.478" stroke="#6B737B" stroke-linecap="round"/>
<path d="M292 8.13577C292 8.13577 300.833 1.30052 303.801 4.00176C306.769 6.703 300.883 16.2189 303.851 18.9202C306.82 21.6214 315.74 14.8658 318.708 17.5671C321.677 20.2683 315.79 29.7842 318.759 32.4855C321.727 35.1867 328.696 26.6558 333.616 31.1323C338.535 35.6089 337.959 44.4777 337.959 44.4777" stroke="#6B737B" stroke-linecap="round"/>
<g clip-path="url(#clip2_446_9877)">
<path d="M87.6728 129.047C87.4462 129.047 87.2179 128.969 87.0316 128.811L80.6217 123.353C80.4006 123.164 80.2734 122.889 80.2734 122.598C80.2734 122.308 80.4011 122.032 80.6217 121.844L87.0316 116.386C87.4479 116.031 88.073 116.081 88.4279 116.498C88.7822 116.914 88.7325 117.54 88.3157 117.894L82.7919 122.598L88.3157 127.302C88.7325 127.657 88.7822 128.282 88.4279 128.698C88.2317 128.929 87.9531 129.047 87.6728 129.047Z" fill="#959BA0"/>
<path d="M100.327 129.047C100.047 129.047 99.7681 128.929 99.5725 128.698C99.2176 128.282 99.2679 127.657 99.6841 127.302L105.208 122.598L99.6841 117.894C99.2679 117.54 99.2176 116.914 99.5725 116.498C99.9268 116.081 100.553 116.031 100.968 116.386L107.378 121.844C107.599 122.032 107.726 122.308 107.726 122.598C107.726 122.889 107.599 123.164 107.378 123.353L100.968 128.811C100.782 128.969 100.554 129.047 100.327 129.047Z" fill="#959BA0"/>
<path d="M91.7309 133.141C91.6629 133.141 91.5944 133.134 91.5253 133.12C90.9902 133.007 90.6475 132.481 90.7602 131.946L94.7551 112.979C94.8679 112.444 95.393 112.101 95.9286 112.214C96.4637 112.327 96.8064 112.852 96.6937 113.387L92.6988 132.355C92.6004 132.821 92.1891 133.141 91.7309 133.141Z" fill="#959BA0"/>
<path d="M117.349 143.475H70.6509C66.9839 143.475 64 140.491 64 136.824V97.189C64 93.5219 66.9839 90.5381 70.6509 90.5381H117.349C121.016 90.5381 124 93.5219 124 97.189V136.824C124 140.491 121.016 143.475 117.349 143.475ZM70.6509 92.5192C68.0761 92.5192 65.9811 94.6142 65.9811 97.189V136.824C65.9811 139.399 68.0761 141.494 70.6509 141.494H117.349C119.924 141.494 122.019 139.399 122.019 136.824V97.189C122.019 94.6142 119.924 92.5192 117.349 92.5192H70.6509Z" fill="#959BA0"/>
<path d="M123.009 106.399H64.9906C64.4433 106.399 64 105.956 64 105.409C64 104.862 64.4433 104.418 64.9906 104.418H123.009C123.557 104.418 124 104.862 124 105.409C124 105.956 123.557 106.399 123.009 106.399Z" fill="#959BA0"/>
<path d="M80.9248 101.659C79.1968 101.659 77.79 100.252 77.79 98.5244C77.79 96.7959 79.1968 95.3896 80.9248 95.3896C82.6533 95.3896 84.0596 96.7959 84.0596 98.5244C84.0596 100.252 82.6533 101.659 80.9248 101.659ZM80.9248 97.3708C80.2891 97.3708 79.7712 97.8882 79.7712 98.5244C79.7712 99.1607 80.2891 99.678 80.9248 99.678C81.561 99.678 82.0784 99.1607 82.0784 98.5244C82.0784 97.8882 81.561 97.3708 80.9248 97.3708Z" fill="#959BA0"/>
<path d="M71.2935 101.629C69.5649 101.629 68.1587 100.223 68.1587 98.4941C68.1587 96.7656 69.5649 95.3594 71.2935 95.3594C73.022 95.3594 74.4282 96.7656 74.4282 98.4941C74.4282 100.223 73.022 101.629 71.2935 101.629ZM71.2935 97.3405C70.6578 97.3405 70.1398 97.8585 70.1398 98.4941C70.1398 99.1304 70.6578 99.6478 71.2935 99.6478C71.9297 99.6478 72.4471 99.1304 72.4471 98.4941C72.4471 97.8585 71.9297 97.3405 71.2935 97.3405Z" fill="#959BA0"/>
<path d="M90.5561 101.689C88.8281 101.689 87.4219 100.283 87.4219 98.5541C87.4219 96.8262 88.8281 95.4199 90.5561 95.4199C92.2846 95.4199 93.6909 96.8262 93.6909 98.5541C93.6909 100.283 92.2846 101.689 90.5561 101.689ZM90.5561 97.4005C89.9204 97.4005 89.403 97.9179 89.403 98.5541C89.403 99.1904 89.9204 99.7078 90.5561 99.7078C91.1923 99.7078 91.7097 99.1904 91.7097 98.5541C91.7097 97.9179 91.1923 97.4005 90.5561 97.4005Z" fill="#959BA0"/>
</g>
<path d="M470.926 240.147H461.213C459.467 240.147 458.047 241.568 458.047 243.314V252.687C458.047 254.432 459.467 255.853 461.213 255.853H470.926C472.672 255.853 474.092 254.432 474.092 252.687V243.314C474.092 241.568 472.672 240.147 470.926 240.147ZM472.892 252.687C472.892 253.771 472.01 254.653 470.926 254.653H461.213C460.129 254.653 459.247 253.771 459.247 252.687V243.314C459.247 242.23 460.129 241.347 461.213 241.347H470.926C472.01 241.347 472.892 242.23 472.892 243.314V252.687Z" fill="#959BA0"/>
<path d="M461.805 235.715V237.99C461.805 238.321 462.074 238.59 462.405 238.59C462.736 238.59 463.005 238.321 463.005 237.99V235.715C464.073 235.446 464.866 234.478 464.866 233.328C464.866 231.971 463.762 230.867 462.405 230.867C461.048 230.867 459.944 231.971 459.944 233.328C459.944 234.478 460.737 235.446 461.805 235.715ZM462.405 232.067C463.1 232.067 463.666 232.633 463.666 233.328C463.666 234.024 463.1 234.589 462.405 234.589C461.71 234.589 461.144 234.024 461.144 233.328C461.144 232.633 461.71 232.067 462.405 232.067Z" fill="#959BA0"/>
<path d="M468.856 235.715V237.99C468.856 238.321 469.124 238.59 469.456 238.59C469.787 238.59 470.056 238.321 470.056 237.99V235.715C471.124 235.446 471.917 234.478 471.917 233.328C471.917 231.971 470.813 230.867 469.456 230.867C468.099 230.867 466.995 231.971 466.995 233.328C466.995 234.478 467.788 235.446 468.856 235.715ZM469.456 232.067C470.151 232.067 470.717 232.633 470.717 233.328C470.717 234.024 470.151 234.589 469.456 234.589C468.76 234.589 468.195 234.024 468.195 233.328C468.195 232.633 468.76 232.067 469.456 232.067Z" fill="#959BA0"/>
<path d="M470.195 260.285V258.01C470.195 257.679 469.926 257.41 469.595 257.41C469.263 257.41 468.995 257.679 468.995 258.01V260.285C467.927 260.553 467.134 261.521 467.134 262.672C467.134 264.029 468.238 265.133 469.595 265.133C470.952 265.133 472.056 264.029 472.056 262.672C472.056 261.521 471.263 260.553 470.195 260.285ZM469.595 263.933C468.899 263.933 468.334 263.367 468.334 262.672C468.334 261.976 468.899 261.411 469.595 261.411C470.29 261.411 470.856 261.976 470.856 262.672C470.856 263.367 470.29 263.933 469.595 263.933Z" fill="#959BA0"/>
<path d="M463.144 260.285V258.01C463.144 257.679 462.875 257.41 462.544 257.41C462.213 257.41 461.944 257.679 461.944 258.01V260.285C460.876 260.553 460.083 261.521 460.083 262.672C460.083 264.029 461.187 265.133 462.544 265.133C463.901 265.133 465.005 264.029 465.005 262.672C465.005 261.521 464.212 260.553 463.144 260.285ZM462.544 263.933C461.849 263.933 461.283 263.367 461.283 262.672C461.283 261.976 461.849 261.411 462.544 261.411C463.239 261.411 463.805 261.976 463.805 262.672C463.805 263.367 463.239 263.933 462.544 263.933Z" fill="#959BA0"/>
<path d="M476.01 245.005H478.285C478.553 246.073 479.522 246.866 480.672 246.866C482.029 246.866 483.133 245.762 483.133 244.405C483.133 243.048 482.029 241.944 480.672 241.944C479.522 241.944 478.553 242.737 478.285 243.805H476.01C475.679 243.805 475.41 244.074 475.41 244.405C475.41 244.737 475.679 245.005 476.01 245.005ZM480.672 243.144C481.367 243.144 481.933 243.71 481.933 244.405C481.933 245.101 481.367 245.666 480.672 245.666C479.976 245.666 479.411 245.101 479.411 244.405C479.411 243.71 479.976 243.144 480.672 243.144Z" fill="#959BA0"/>
<path d="M480.672 248.994C479.522 248.994 478.553 249.787 478.285 250.855H476.01C475.679 250.855 475.41 251.124 475.41 251.455C475.41 251.787 475.679 252.055 476.01 252.055H478.285C478.553 253.123 479.522 253.916 480.672 253.916C482.029 253.916 483.133 252.812 483.133 251.455C483.133 250.098 482.029 248.994 480.672 248.994ZM480.672 252.716C479.976 252.716 479.411 252.151 479.411 251.455C479.411 250.76 479.976 250.194 480.672 250.194C481.367 250.194 481.933 250.76 481.933 251.455C481.933 252.151 481.367 252.716 480.672 252.716Z" fill="#959BA0"/>
<path d="M455.99 250.995H453.715C453.446 249.927 452.478 249.134 451.328 249.134C449.971 249.134 448.867 250.238 448.867 251.595C448.867 252.952 449.971 254.056 451.328 254.056C452.478 254.056 453.446 253.263 453.715 252.195H455.99C456.321 252.195 456.59 251.926 456.59 251.595C456.59 251.263 456.321 250.995 455.99 250.995ZM451.328 252.856C450.633 252.856 450.067 252.29 450.067 251.595C450.067 250.899 450.633 250.334 451.328 250.334C452.024 250.334 452.589 250.899 452.589 251.595C452.589 252.29 452.024 252.856 451.328 252.856Z" fill="#959BA0"/>
<path d="M455.99 243.944H453.715C453.446 242.876 452.478 242.083 451.328 242.083C449.971 242.083 448.867 243.187 448.867 244.544C448.867 245.901 449.971 247.005 451.328 247.005C452.478 247.005 453.446 246.212 453.715 245.144H455.99C456.321 245.144 456.59 244.875 456.59 244.544C456.59 244.213 456.321 243.944 455.99 243.944ZM451.328 245.805C450.633 245.805 450.067 245.239 450.067 244.544C450.067 243.849 450.633 243.283 451.328 243.283C452.024 243.283 452.589 243.849 452.589 244.544C452.589 245.239 452.024 245.805 451.328 245.805Z" fill="#959BA0"/>
<path d="M465.405 244.78C465.241 244.41 464.875 244.172 464.471 244.172C464.067 244.172 463.701 244.41 463.537 244.78L460.948 250.626C460.765 251.039 461.068 251.504 461.52 251.504C461.769 251.504 461.994 251.357 462.093 251.128L462.585 249.997C462.613 249.934 462.674 249.894 462.743 249.894H466.194C466.263 249.894 466.324 249.934 466.352 249.997L466.843 251.127C466.943 251.356 467.169 251.504 467.418 251.504C467.872 251.504 468.176 251.038 467.992 250.623L465.405 244.78ZM465.585 248.815H463.367C463.244 248.815 463.161 248.688 463.21 248.575L464.319 246.022C464.379 245.884 464.574 245.884 464.633 246.022L465.742 248.575C465.792 248.688 465.709 248.815 465.585 248.815Z" fill="#959BA0"/>
<path d="M469.906 244.172C469.548 244.172 469.257 244.463 469.257 244.821V250.855C469.257 251.214 469.548 251.504 469.906 251.504C470.265 251.504 470.556 251.214 470.556 250.855V244.821C470.556 244.463 470.265 244.172 469.906 244.172Z" fill="#959BA0"/>
<path d="M655.082 17.0314L648.44 10.3896C648.385 10.3322 648.318 10.2868 648.244 10.2563C648.17 10.2257 648.091 10.2107 648.011 10.212H637.163C636.52 10.212 635.903 10.4674 635.449 10.922C634.994 11.3767 634.739 11.9933 634.739 12.6362V33.3635C634.739 34.0065 634.994 34.6231 635.449 35.0777C635.903 35.5323 636.52 35.7878 637.163 35.7878H652.835C653.478 35.7878 654.095 35.5323 654.549 35.0777C655.004 34.6231 655.259 34.0065 655.259 33.3635V17.4599C655.259 17.2992 655.195 17.1453 655.082 17.0314ZM653.19 16.8538H649.527C649.286 16.8538 649.054 16.758 648.884 16.5875C648.713 16.4171 648.618 16.1858 648.618 15.9447V12.2811L653.19 16.8538ZM652.835 34.5756H637.165C636.843 34.5756 636.535 34.4479 636.308 34.2206C636.08 33.9933 635.953 33.685 635.953 33.3635V12.6362C635.953 12.3148 636.08 12.0065 636.308 11.7791C636.535 11.5518 636.843 11.4241 637.165 11.4241H647.407V15.9447C647.407 16.5073 647.631 17.0468 648.029 17.4446C648.426 17.8425 648.966 18.0659 649.528 18.0659H654.049V33.3635C654.049 33.5228 654.018 33.6806 653.957 33.8278C653.896 33.975 653.806 34.1087 653.693 34.2213C653.581 34.3338 653.447 34.4231 653.3 34.4839C653.152 34.5447 652.994 34.5759 652.835 34.5756Z" fill="#959BA0"/>
<path d="M642.565 19.5458C643.051 19.5458 643.525 19.4019 643.929 19.1321C644.333 18.8624 644.647 18.4791 644.833 18.0306C645.019 17.5821 645.067 17.0885 644.973 16.6124C644.878 16.1363 644.644 15.6989 644.301 15.3556C643.958 15.0124 643.52 14.7786 643.044 14.6839C642.568 14.5892 642.075 14.6378 641.626 14.8236C641.178 15.0093 640.794 15.3239 640.525 15.7276C640.255 16.1312 640.111 16.6058 640.111 17.0913C640.112 17.742 640.371 18.3659 640.831 18.826C641.291 19.2861 641.915 19.545 642.565 19.5458ZM642.565 15.8488C642.811 15.8488 643.051 15.9217 643.256 16.0582C643.46 16.1947 643.619 16.3888 643.713 16.6158C643.807 16.8428 643.832 17.0926 643.784 17.3337C643.736 17.5747 643.618 17.796 643.444 17.9698C643.27 18.1435 643.049 18.2619 642.808 18.3098C642.567 18.3578 642.317 18.3332 642.09 18.2391C641.863 18.1451 641.669 17.9858 641.532 17.7815C641.396 17.5772 641.323 17.337 641.323 17.0913C641.323 16.7619 641.454 16.4462 641.687 16.2133C641.92 15.9804 642.236 15.8493 642.565 15.8488Z" fill="#959BA0"/>
<path d="M639.013 24.2425C639.174 24.2425 639.328 24.1787 639.442 24.065C639.555 23.9514 639.619 23.7972 639.619 23.6365V23.2668C639.62 22.6713 639.857 22.1005 640.278 21.6795C640.699 21.2584 641.27 21.0215 641.865 21.0207H643.265C643.861 21.0215 644.432 21.2584 644.853 21.6795C645.274 22.1005 645.511 22.6713 645.511 23.2668V23.6365C645.511 23.7972 645.575 23.9514 645.689 24.065C645.803 24.1787 645.957 24.2425 646.118 24.2425C646.278 24.2425 646.432 24.1787 646.546 24.065C646.66 23.9514 646.724 23.7972 646.724 23.6365V23.2668C646.722 22.35 646.358 21.471 645.709 20.8227C645.061 20.1744 644.182 19.8097 643.265 19.8086H641.865C640.949 19.8097 640.07 20.1744 639.421 20.8227C638.773 21.471 638.408 22.35 638.407 23.2668V23.6365C638.407 23.7972 638.471 23.9514 638.585 24.065C638.698 24.1787 638.853 24.2425 639.013 24.2425Z" fill="#959BA0"/>
<path d="M638.676 28.677H646.03C646.191 28.677 646.345 28.6131 646.459 28.4995C646.573 28.3858 646.636 28.2316 646.636 28.0709C646.636 27.9102 646.573 27.756 646.459 27.6424C646.345 27.5287 646.191 27.4648 646.03 27.4648H638.676C638.515 27.4648 638.361 27.5287 638.247 27.6424C638.134 27.756 638.07 27.9102 638.07 28.0709C638.07 28.2316 638.134 28.3858 638.247 28.4995C638.361 28.6131 638.515 28.677 638.676 28.677Z" fill="#959BA0"/>
<path d="M650.191 30.6562H638.676C638.515 30.6562 638.361 30.7201 638.247 30.8338C638.134 30.9474 638.07 31.1016 638.07 31.2623C638.07 31.423 638.134 31.5772 638.247 31.6909C638.361 31.8045 638.515 31.8684 638.676 31.8684H650.191C650.352 31.8684 650.506 31.8045 650.62 31.6909C650.733 31.5772 650.797 31.423 650.797 31.2623C650.797 31.1016 650.733 30.9474 650.62 30.8338C650.506 30.7201 650.352 30.6562 650.191 30.6562Z" fill="#959BA0"/>
<path d="M340.678 118.383H304.322C303.147 118.383 302.179 119.35 302.179 120.525V131.515C302.179 131.93 302.456 132.206 302.87 132.206C303.285 132.206 303.562 131.93 303.562 131.515V127.368H321.809V161.236H304.322C303.907 161.236 303.562 160.89 303.562 160.475V134.418C303.562 134.003 303.285 133.727 302.87 133.727C302.456 133.727 302.179 134.003 302.179 134.418V160.475C302.179 161.65 303.147 162.618 304.322 162.618H340.678C341.853 162.618 342.82 161.65 342.82 160.475V156.328C342.82 155.914 342.544 155.637 342.129 155.637C341.714 155.637 341.438 155.914 341.438 156.328V160.475C341.438 160.89 341.092 161.236 340.678 161.236H323.191V127.437H341.438V152.803C341.438 153.218 341.714 153.495 342.129 153.495C342.544 153.495 342.82 153.218 342.82 152.803C342.82 143.403 342.82 126.055 342.82 120.525C342.82 119.35 341.853 118.383 340.678 118.383ZM303.562 126.055V120.525C303.562 120.111 303.907 119.765 304.322 119.765H340.678C341.092 119.765 341.438 120.111 341.438 120.525V126.055H303.562Z" fill="#959BA0"/>
<path d="M305.98 145.961C305.98 146.375 306.257 146.652 306.672 146.652H318.007C318.422 146.652 318.698 146.375 318.698 145.961C318.698 145.546 318.422 145.27 318.007 145.27H306.672C306.326 145.27 305.98 145.546 305.98 145.961Z" fill="#959BA0"/>
<path d="M306.672 150.937H318.007C318.422 150.937 318.698 150.661 318.698 150.246C318.698 149.831 318.422 149.555 318.007 149.555H306.672C306.257 149.555 305.98 149.831 305.98 150.246C305.98 150.661 306.326 150.937 306.672 150.937Z" fill="#959BA0"/>
<path d="M306.672 155.292H318.007C318.422 155.292 318.698 155.015 318.698 154.6C318.698 154.186 318.422 153.909 318.007 153.909H306.672C306.257 153.909 305.98 154.186 305.98 154.6C305.98 155.015 306.326 155.292 306.672 155.292Z" fill="#959BA0"/>
<path d="M337.706 145.27H326.37C325.956 145.27 325.679 145.546 325.679 145.961C325.679 146.375 325.956 146.652 326.37 146.652H337.706C338.12 146.652 338.397 146.375 338.397 145.961C338.397 145.546 338.051 145.27 337.706 145.27Z" fill="#959BA0"/>
<path d="M337.706 149.555H326.37C325.956 149.555 325.679 149.831 325.679 150.246C325.679 150.661 325.956 150.937 326.37 150.937H337.706C338.12 150.937 338.397 150.661 338.397 150.246C338.397 149.831 338.051 149.555 337.706 149.555Z" fill="#959BA0"/>
<path d="M337.706 153.909H326.37C325.956 153.909 325.679 154.186 325.679 154.6C325.679 155.015 325.956 155.292 326.37 155.292H337.706C338.12 155.292 338.397 155.015 338.397 154.6C338.397 154.186 338.051 153.909 337.706 153.909Z" fill="#959BA0"/>
<path d="M338.812 122.253H325.472C325.057 122.253 324.781 122.529 324.781 122.944C324.781 123.359 325.057 123.635 325.472 123.635H338.812C339.226 123.635 339.503 123.359 339.503 122.944C339.503 122.529 339.157 122.253 338.812 122.253Z" fill="#959BA0"/>
<path d="M307.294 122.253H306.188C305.774 122.253 305.497 122.529 305.497 122.944C305.497 123.359 305.774 123.635 306.188 123.635H307.294C307.709 123.635 307.985 123.359 307.985 122.944C307.985 122.529 307.64 122.253 307.294 122.253Z" fill="#959BA0"/>
<path d="M310.681 122.253H309.575C309.16 122.253 308.884 122.529 308.884 122.944C308.884 123.359 309.16 123.635 309.575 123.635H310.681C311.096 123.635 311.372 123.359 311.372 122.944C311.372 122.529 311.096 122.253 310.681 122.253Z" fill="#959BA0"/>
<path d="M314.068 122.253H312.962C312.547 122.253 312.271 122.529 312.271 122.944C312.271 123.359 312.547 123.635 312.962 123.635H314.068C314.482 123.635 314.759 123.359 314.759 122.944C314.759 122.529 314.482 122.253 314.068 122.253Z" fill="#959BA0"/>
<path d="M307.778 140.293C307.639 140.155 307.57 140.017 307.57 139.81C307.57 139.74 307.57 139.602 307.639 139.533L311.441 130.755C311.51 130.548 311.648 130.41 311.786 130.34C311.925 130.202 312.132 130.202 312.339 130.202H312.478C312.685 130.202 312.823 130.271 313.031 130.34C313.169 130.479 313.307 130.617 313.376 130.755L316.97 139.533C317.039 139.671 317.039 139.74 317.039 139.81C317.039 140.017 316.97 140.155 316.832 140.293C316.694 140.432 316.556 140.501 316.348 140.501C316.21 140.501 316.072 140.432 316.003 140.362C315.864 140.293 315.795 140.155 315.726 140.086L314.759 137.805H309.782L308.814 140.086C308.745 140.224 308.676 140.293 308.538 140.362C308.4 140.432 308.331 140.501 308.192 140.501C308.054 140.501 307.916 140.432 307.778 140.293ZM310.335 136.561H314.275L312.27 131.792L310.335 136.561Z" fill="#959BA0"/>
<path d="M327.822 140.293C327.683 140.155 327.614 140.017 327.614 139.809V130.824C327.614 130.617 327.683 130.478 327.822 130.34C327.96 130.202 328.098 130.133 328.305 130.133H331.83C332.867 130.133 333.697 130.409 334.319 130.893C334.872 131.377 335.217 131.999 335.217 132.828C335.217 133.381 335.079 133.865 334.802 134.28C334.526 134.695 334.18 134.971 333.766 135.109C334.388 135.317 334.872 135.593 335.217 136.008C335.632 136.423 335.77 136.975 335.77 137.598C335.77 138.496 335.494 139.187 334.872 139.74C334.25 140.224 333.282 140.5 331.969 140.5H328.375C328.098 140.5 327.891 140.431 327.822 140.293ZM331.416 134.625C332.314 134.625 332.936 134.487 333.282 134.211C333.627 133.934 333.835 133.52 333.835 132.967C333.835 132.483 333.627 132.137 333.282 131.861C332.867 131.584 332.383 131.446 331.692 131.446H328.997V134.695H331.416V134.625ZM331.761 139.256C332.729 139.256 333.42 139.118 333.835 138.842C334.25 138.565 334.457 138.15 334.457 137.598C334.457 136.492 333.558 135.87 331.83 135.87H329.066V139.256H331.761Z" fill="#959BA0"/>
<defs>
<clipPath id="clip0_446_9877">
<rect width="60" height="60" fill="white" transform="translate(1051 203)"/>
</clipPath>
<clipPath id="clip1_446_9877">
<rect width="40" height="40" fill="white" transform="translate(1035 32)"/>
</clipPath>
<clipPath id="clip2_446_9877">
<rect width="60" height="60" fill="white" transform="translate(64 87)"/>
</clipPath>
</defs>
</svg>
